<?xml version="1.0" encoding="UTF-8"?>
<!DOCTYPE svg PUBLIC "-//W3C//DTD SVG 1.1//EN" "http://www.w3.org/Graphics/SVG/1.1/DTD/svg11.dtd">

<svg xmlns="http://www.w3.org/2000/svg" xml:space="preserve" width="194.677mm" height="21.2164mm" version="1.1" style="shape-rendering:geometricPrecision; text-rendering:geometricPrecision; image-rendering:optimizeQuality; fill-rule:evenodd; clip-rule:evenodd"
viewBox="0 0 16118 1757"
 xmlns:xlink="http://www.w3.org/1999/xlink">
 <defs>
  <style type="text/css">
   <![CDATA[
    .fil0 {fill:#FF6633;fill-rule:nonzero}
   ]]>
  </style>
 </defs>
 <g id="Layer_x0020_1">

  <path class="fil0" d="M0 824l5967 0 0 108 -5967 0 0 -108zm8067 933c154,-24 435,-159 549,-230 349,-215 561,-454 725,-833 57,-130 178,-430 204,-569 -71,-57 -235,-93 -342,-99 -407,-23 -792,196 -1014,490 -242,320 -361,779 -217,1167 34,-36 54,-96 80,-146 136,-260 462,-741 700,-847 -38,35 -77,68 -118,107 -208,200 -502,708 -567,960zm-1493 -1334c0,370 216,677 393,852 224,220 568,355 896,360 -21,-357 25,-244 -184,-395 -57,-41 -105,-86 -160,-128 -82,-63 -220,-210 -273,-310 43,40 82,95 129,137 111,98 340,281 477,329 4,-99 21,-205 41,-299 30,-135 75,-199 41,-250 -61,-94 -244,-255 -337,-320 -192,-137 -718,-368 -928,-399 -51,164 -95,194 -95,423zm3577 401l5967 0 0 108 -5967 0 0 -108z"/>
 </g>
</svg>
