<?xml version="1.0" encoding="UTF-8"?>
<!DOCTYPE svg PUBLIC "-//W3C//DTD SVG 1.1//EN" "http://www.w3.org/Graphics/SVG/1.1/DTD/svg11.dtd">
<svg xmlns="http://www.w3.org/2000/svg" xml:space="preserve" width="164.571mm" height="30.9964mm" version="1.1" style="shape-rendering:geometricPrecision; text-rendering:geometricPrecision; image-rendering:optimizeQuality; fill-rule:evenodd; clip-rule:evenodd"
viewBox="0 0 17269 3253"
 xmlns:xlink="http://www.w3.org/1999/xlink">
 <defs>
  <style type="text/css">
   <![CDATA[
    .fil0 {fill:#FF6633}
    .fil1 {fill:#FF6633;fill-rule:nonzero}
   ]]>
  </style>
 </defs>
 <g id="Layer_x0020_1">
  <path class="fil0" d="M9577 880c28,-28 38,-41 62,-67l250 -271c26,-23 42,-43 61,-67 24,10 85,70 93,87l-436 472c-19,22 -45,47 -65,67 -24,-13 -74,-57 -90,-80l125 -141zm-2343 2373l44 0c67,-55 35,-33 78,-72l358 -390c28,-38 19,-75 -8,-103 -123,-121 -142,-21 -252,83l-283 310c-75,84 14,130 63,172zm2737 -62l38 -53c3,-52 -15,-67 -41,-90l-270 -289c-110,-127 -148,-188 -240,-91 -87,92 6,124 106,243l135 145c19,18 79,94 137,143 51,44 90,47 135,-8zm-2195 -496c19,-10 252,-266 267,-284l432 -465c-6,-14 -98,-116 -126,-133 -22,35 -86,97 -127,145 -15,18 -30,29 -46,46 -15,17 -25,32 -41,49 -17,18 -30,28 -46,46 -28,34 -58,62 -86,96l-349 381c53,35 103,58 122,119zm-699 -2361l0 24 511 595c13,15 25,23 38,39 37,45 95,110 154,138 53,26 67,16 123,14 65,-1 112,79 162,131l830 894 417 448c11,11 17,20 27,32l34 33c22,-30 30,-48 55,-70 10,-10 19,-18 33,-26 10,-7 29,-14 40,-22l-1394 -1506c-54,-64 8,-140 -52,-241 -34,-58 -96,-112 -136,-156 -24,-26 -49,-46 -72,-72l-138 -148c-26,-29 -41,-46 -74,-76 -62,-54 -162,-169 -218,-218 -50,-43 -56,-61 -88,-51 -6,30 34,66 61,98l479 575c28,49 -4,104 -29,131 -94,100 -155,-2 -205,-53 -60,-62 -503,-506 -532,-524 -14,4 -18,6 -26,11zm2199 525c20,-31 37,-43 64,-72l156 -169c12,-12 19,-22 30,-35l249 -270c22,12 78,63 92,86l-502 542c-31,-23 -63,-52 -89,-82zm-177 -163c20,-30 38,-43 65,-72l437 -472c31,22 63,50 88,82l-504 545c-21,-20 -70,-61 -86,-83zm1094 -132l0 -61 -16 -26c-15,-27 -216,-211 -249,-239 -27,-24 -39,-32 -68,-62l-137 -123c-58,-57 -27,-22 -76,-53l-56 0c-7,5 -1,1 -13,9 -52,30 -77,66 -117,112 -20,23 -39,39 -60,64l-119 127c-23,22 -36,44 -58,66l-117 124c-43,51 -216,229 -229,259 -52,125 119,189 183,280 -13,27 -111,122 -141,159 -38,45 -217,226 -234,257 22,22 37,46 59,68 14,14 24,18 35,30 14,14 12,19 26,31l390 -420c26,15 46,34 67,56 23,25 42,36 65,59 38,37 89,88 168,45 29,-16 148,-151 183,-188 20,-21 33,-42 54,-62l410 -442c21,-23 30,-44 50,-70z"/>
  <path class="fil1" d="M0 1558l6006 0 0 136 -6006 0 0 -136zm11263 0l6006 0 0 136 -6006 0 0 -136z"/>
 </g>
</svg>
