<?xml version="1.0" encoding="UTF-8"?>
<!DOCTYPE svg PUBLIC "-//W3C//DTD SVG 1.1//EN" "http://www.w3.org/Graphics/SVG/1.1/DTD/svg11.dtd">

<svg xmlns="http://www.w3.org/2000/svg" xml:space="preserve" width="20mm" height="20mm" version="1.1" style="shape-rendering:geometricPrecision; text-rendering:geometricPrecision; image-rendering:optimizeQuality; fill-rule:evenodd; clip-rule:evenodd"
viewBox="0 0 126 126"
 xmlns:xlink="http://www.w3.org/1999/xlink">
 <defs>
  <style type="text/css">
   <![CDATA[
    .fil0 {fill:#FF6633}
   ]]>
  </style>
 </defs>
 <g id="Layer_x0020_1">

  <path class="fil0" d="M0 5l0 116c3,4 1,2 5,5l62 0 0 -49 -16 0 0 -19c1,0 5,0 8,0 3,0 5,0 8,0 0,-4 -1,-13 0,-16 0,-10 6,-17 12,-20 7,-4 18,-3 27,-2l0 17c-8,0 -18,-2 -19,7l0 14 17 0c3,0 1,0 2,1l-3 18 -16 0 0 49 34 0c4,-3 2,-1 5,-6l0 -115c-3,-4 -1,-2 -5,-5l-116 0c-1,1 -2,1 -3,2 -1,1 -1,2 -2,3z"/>
 </g>
</svg>
