<?xml version="1.0" encoding="UTF-8"?>
<!DOCTYPE svg PUBLIC "-//W3C//DTD SVG 1.1//EN" "http://www.w3.org/Graphics/SVG/1.1/DTD/svg11.dtd">
<svg xmlns="http://www.w3.org/2000/svg" xml:space="preserve" width="105.104mm" height="25.4107mm" version="1.1" style="shape-rendering:geometricPrecision; text-rendering:geometricPrecision; image-rendering:optimizeQuality; fill-rule:evenodd; clip-rule:evenodd"
viewBox="0 0 10510 2541"
 xmlns:xlink="http://www.w3.org/1999/xlink">
 <defs>
  <style type="text/css">
   <![CDATA[
    .fil1 {fill:#fff;fill-rule:nonzero}
    .fil0 {fill:#689F38;fill-rule:nonzero}
    .fil2 {fill:#FF6633;fill-rule:nonzero}
   ]]>
  </style>
 </defs>
 <g id="Layer_x0020_1">
  <path class="fil0" d="M0 255l454 773 -125 -1028 297 949 314 -517 -313 886 -203 0 -424 -1063zm1118 -227l278 960 -1 -484 102 440 243 -732 -170 879 478 -559 -455 786 -232 0 -243 -1290z"/>
  <path class="fil1" d="M2913 1892l-637 0 0 585 726 0 0 46 -773 0 0 -1270 773 0 0 46 -726 0 0 547 637 0 0 46zm1229 495c-32,45 -88,81 -168,111 -80,28 -169,43 -265,43 -94,0 -178,-23 -253,-69 -74,-46 -131,-111 -173,-195 -41,-84 -63,-178 -64,-284l0 -219c0,-104 20,-197 60,-280 41,-83 97,-146 170,-192 72,-45 154,-67 245,-67 126,0 229,32 308,96 80,65 126,154 139,265l-47 0c-16,-101 -58,-179 -127,-234 -69,-54 -160,-81 -273,-81 -128,0 -231,46 -310,137 -78,92 -118,212 -118,361l0 203c0,100 19,189 56,267 37,78 89,138 156,181 67,43 144,65 231,65 85,0 163,-13 236,-38 73,-25 123,-56 150,-91l0 -372 -388 0 0 -46 435 0 0 439zm1015 -495l-636 0 0 585 726 0 0 46 -774 0 0 -1270 774 0 0 46 -726 0 0 547 636 0 0 46zm382 93l0 538 -48 0 0 -1270 397 0c130,0 231,32 303,98 72,65 108,156 108,272 0,115 -35,204 -106,266 -70,63 -169,95 -298,96l-356 0zm0 -46l349 0c115,0 204,-28 268,-83 64,-55 96,-133 96,-231 0,-103 -32,-183 -96,-240 -64,-57 -153,-86 -268,-86l-349 0 0 640zm1574 204l-622 0 -141 380 -52 0 476 -1270 57 0 476 1270 -52 0 -142 -380zm-605 -47l588 0 -293 -787 -295 787zm1764 123c0,-54 -13,-100 -38,-138 -26,-37 -65,-70 -120,-99 -54,-29 -136,-59 -246,-89 -110,-30 -193,-61 -247,-92 -56,-31 -96,-66 -121,-107 -26,-41 -39,-90 -39,-148 0,-93 39,-168 117,-225 78,-58 180,-86 305,-86 81,0 154,15 219,47 65,32 115,77 151,134 35,57 53,122 53,194l-47 0c0,-95 -35,-174 -105,-236 -70,-62 -160,-93 -271,-93 -112,0 -202,25 -271,75 -69,50 -104,112 -104,187 0,76 30,138 90,184 60,47 159,88 297,124 138,36 239,77 303,124 81,60 122,141 122,242 0,64 -18,121 -54,170 -36,49 -88,87 -154,114 -66,27 -141,40 -223,40 -92,0 -175,-15 -248,-46 -74,-30 -129,-74 -166,-130 -36,-57 -55,-124 -55,-200l47 0c0,104 39,185 117,243 78,58 180,87 305,87 111,0 202,-26 275,-77 72,-51 108,-117 108,-199zm269 258l839 0 0 46 -904 0 0 -38 811 -1186 -776 0 0 -46 841 0 0 33 -811 1191zm1775 -334l-621 0 -142 380 -51 0 475 -1270 58 0 475 1270 -51 0 -143 -380zm-604 -47l587 0 -293 -787 -294 787z"/>
  <path class="fil2" d="M1920 1253l52 0 -475 1270 -29 0 -29 0 -169 -454 247 -21 -254 -22 -9 0 -84 -224 248 -21 -255 -22 -9 0 -68 -182 245 -21 -254 -22 -7 0 -80 -213 -449 1202 -28 0 -29 0 -475 -1270 52 0 904 0 51 0 904 0zm-1544 303l-255 -22 -7 0 16 43 246 -21zm186 492l-255 -22 -9 0 16 43 248 -21zm-100 -267l-254 -22 -10 0 17 43 247 -21z"/>
 </g>
</svg>
