<?xml version="1.0" encoding="UTF-8"?>
<!DOCTYPE svg PUBLIC "-//W3C//DTD SVG 1.1//EN" "http://www.w3.org/Graphics/SVG/1.1/DTD/svg11.dtd">

<svg xmlns="http://www.w3.org/2000/svg" xml:space="preserve" width="24.5228mm" height="20mm" version="1.1" style="shape-rendering:geometricPrecision; text-rendering:geometricPrecision; image-rendering:optimizeQuality; fill-rule:evenodd; clip-rule:evenodd"
viewBox="0 0 265 216"
 xmlns:xlink="http://www.w3.org/1999/xlink">
 <defs>
  <style type="text/css">
   <![CDATA[
    .fil0 {fill:#FF6633}
   ]]>
  </style>
 </defs>
 <g id="Layer_x0020_1">

  <path class="fil0" d="M235 34c2,-1 3,-2 4,-3 8,-5 17,-17 19,-27 -2,1 -6,3 -8,4 -7,4 -18,8 -26,9 -2,-1 -2,-2 -3,-3 -18,-15 -43,-19 -64,-7 -9,5 -16,12 -22,23 -8,15 -6,24 -5,37 -24,-1 -47,-8 -66,-19 -15,-8 -33,-22 -43,-35 -1,-1 -1,-1 -3,-3 0,1 0,0 -1,1 0,0 0,1 0,1 -3,4 -5,13 -6,17 -2,14 2,30 10,41 7,9 9,8 13,13 -14,-1 -17,-5 -24,-7 0,15 6,28 13,36 11,14 26,16 30,19 -4,0 -7,1 -12,1 -4,0 -8,0 -12,-1 4,12 11,21 18,26 10,8 17,11 33,12 -5,6 -24,15 -34,18 -17,5 -28,6 -46,5l2 1c1,1 2,1 2,2 49,28 114,29 162,-1 46,-30 74,-82 72,-140 4,-2 13,-10 15,-13 4,-4 9,-9 12,-15 -9,2 -17,7 -30,8z"/>
 </g>
</svg>
